<svg width="800" height="600" viewBox="0 0 800 600" xmlns="http://www.w3.org/2000/svg">
  <!-- Background -->
  <rect width="800" height="600" fill="#f8fafc"/>
  
  <!-- Header -->
  <rect x="0" y="0" width="800" height="70" fill="#3b82f6"/>
  <text x="40" y="45" font-family="Arial, sans-serif" font-size="24" font-weight="bold" fill="#ffffff">Edunova</text>
  <text x="150" y="30" font-family="Arial, sans-serif" font-size="12" fill="#e2e8f0">Learn • Collaborate • Grow</text>
  
  <!-- Navigation -->
  <text x="200" y="45" font-family="Arial, sans-serif" font-size="14" fill="#ffffff">Dashboard</text>
  <text x="290" y="45" font-family="Arial, sans-serif" font-size="14" fill="#cbd5e1">Courses</text>
  <text x="360" y="45" font-family="Arial, sans-serif" font-size="14" fill="#cbd5e1">Progress</text>
  <text x="430" y="45" font-family="Arial, sans-serif" font-size="14" fill="#cbd5e1">Community</text>
  
  <!-- User Avatar -->
  <circle cx="720" cy="35" r="20" fill="#10b981"/>
  <text x="716" y="40" font-family="Arial, sans-serif" font-size="12" font-weight="bold" fill="#ffffff">AK</text>
  
  <!-- Main Content Area -->
  <rect x="40" y="100" width="720" height="470" fill="#ffffff" rx="8" stroke="#e2e8f0" stroke-width="1"/>
  
  <!-- Sidebar -->
  <rect x="40" y="100" width="200" height="470" fill="#f1f5f9" rx="8"/>
  <text x="60" y="130" font-family="Arial, sans-serif" font-size="16" font-weight="bold" fill="#1e293b">My Courses</text>
  
  <!-- Course List -->
  <rect x="60" y="150" width="160" height="60" fill="#ffffff" rx="6" stroke="#e2e8f0" stroke-width="1"/>
  <rect x="70" y="160" width="40" height="40" fill="#3b82f6" rx="4"/>
  <text x="85" y="180" font-family="Arial, sans-serif" font-size="12" font-weight="bold" fill="#ffffff">JS</text>
  <text x="120" y="170" font-family="Arial, sans-serif" font-size="12" font-weight="bold" fill="#1e293b">JavaScript Basics</text>
  <text x="120" y="185" font-family="Arial, sans-serif" font-size="10" fill="#64748b">75% Complete</text>
  <rect x="120" y="190" width="80" height="4" fill="#e2e8f0" rx="2"/>
  <rect x="120" y="190" width="60" height="4" fill="#10b981" rx="2"/>
  
  <rect x="60" y="220" width="160" height="60" fill="#ffffff" rx="6" stroke="#e2e8f0" stroke-width="1"/>
  <rect x="70" y="230" width="40" height="40" fill="#10b981" rx="4"/>
  <text x="85" y="250" font-family="Arial, sans-serif" font-size="12" font-weight="bold" fill="#ffffff">R</text>
  <text x="120" y="240" font-family="Arial, sans-serif" font-size="12" font-weight="bold" fill="#1e293b">React Advanced</text>
  <text x="120" y="255" font-family="Arial, sans-serif" font-size="10" fill="#64748b">45% Complete</text>
  <rect x="120" y="260" width="80" height="4" fill="#e2e8f0" rx="2"/>
  <rect x="120" y="260" width="36" height="4" fill="#3b82f6" rx="2"/>
  
  <rect x="60" y="290" width="160" height="60" fill="#ffffff" rx="6" stroke="#e2e8f0" stroke-width="1"/>
  <rect x="70" y="300" width="40" height="40" fill="#f59e0b" rx="4"/>
  <text x="85" y="320" font-family="Arial, sans-serif" font-size="12" font-weight="bold" fill="#ffffff">N</text>
  <text x="120" y="310" font-family="Arial, sans-serif" font-size="12" font-weight="bold" fill="#1e293b">Node.js Backend</text>
  <text x="120" y="325" font-family="Arial, sans-serif" font-size="10" fill="#64748b">90% Complete</text>
  <rect x="120" y="330" width="80" height="4" fill="#e2e8f0" rx="2"/>
  <rect x="120" y="330" width="72" height="4" fill="#f59e0b" rx="2"/>
  
  <!-- Main Content -->
  <rect x="260" y="120" width="480" height="430" fill="#ffffff"/>
  
  <!-- Current Course Header -->
  <text x="280" y="150" font-family="Arial, sans-serif" font-size="20" font-weight="bold" fill="#1e293b">JavaScript Fundamentals</text>
  <text x="280" y="170" font-family="Arial, sans-serif" font-size="14" fill="#64748b">Learn the building blocks of modern web development</text>
  
  <!-- Video Player Area -->
  <rect x="280" y="190" width="440" height="250" fill="#000000" rx="8"/>
  <circle cx="500" cy="315" r="30" fill="#ffffff" fill-opacity="0.9"/>
  <polygon points="490,305 490,325 515,315" fill="#000000"/>
  <text x="450" y="350" font-family="Arial, sans-serif" font-size="12" fill="#ffffff">Chapter 3: Variables and Data Types</text>
  
  <!-- Progress Bar -->
  <rect x="280" y="460" width="440" height="8" fill="#e2e8f0" rx="4"/>
  <rect x="280" y="460" width="264" height="8" fill="#3b82f6" rx="4"/>
  <text x="280" y="485" font-family="Arial, sans-serif" font-size="12" fill="#64748b">60% Complete - 24 minutes remaining</text>
  
  <!-- Action Buttons -->
  <rect x="280" y="500" width="100" height="35" fill="#3b82f6" rx="6"/>
  <text x="315" y="520" font-family="Arial, sans-serif" font-size="12" font-weight="bold" fill="#ffffff">Continue</text>
  
  <rect x="400" y="500" width="80" height="35" fill="#ffffff" rx="6" stroke="#e2e8f0" stroke-width="1"/>
  <text x="425" y="520" font-family="Arial, sans-serif" font-size="12" fill="#64748b">Notes</text>
  
  <rect x="500" y="500" width="80" height="35" fill="#ffffff" rx="6" stroke="#e2e8f0" stroke-width="1"/>
  <text x="525" y="520" font-family="Arial, sans-serif" font-size="12" fill="#64748b">Quiz</text>
  
  <!-- Live Chat Indicator -->
  <circle cx="680" cy="140" r="4" fill="#10b981"/>
  <text x="690" y="145" font-family="Arial, sans-serif" font-size="10" fill="#10b981">12 online</text>
  
  <!-- Achievement Badge -->
  <circle cx="60" cy="400" r="15" fill="#fbbf24"/>
  <text x="56" y="404" font-family="Arial, sans-serif" font-size="10" font-weight="bold" fill="#ffffff">★</text>
  <text x="60" y="425" font-family="Arial, sans-serif" font-size="8" fill="#64748b" text-anchor="middle">Streak: 7 days</text>
  
  <!-- Bottom Stats -->
  <rect x="60" y="450" width="160" height="80" fill="#ffffff" rx="6" stroke="#e2e8f0" stroke-width="1"/>
  <text x="80" y="470" font-family="Arial, sans-serif" font-size="12" font-weight="bold" fill="#1e293b">Learning Stats</text>
  <text x="80" y="485" font-family="Arial, sans-serif" font-size="10" fill="#64748b">Hours this week: 12.5</text>
  <text x="80" y="500" font-family="Arial, sans-serif" font-size="10" fill="#64748b">Completed: 8 lessons</text>
  <text x="80" y="515" font-family="Arial, sans-serif" font-size="10" fill="#64748b">Certificates: 3</text>
  
  <!-- Footer text -->
  <text x="400" y="590" font-family="Arial, sans-serif" font-size="12" fill="#64748b" text-anchor="middle">Interactive Learning Management System</text>
</svg>
